# xmcd
#
# Track frame offsets: 
#        150
#        14643
#        30874
#        47511
#        64599
#        85762
#        101401
#        116751
#        133099
#        149254
#        167741
#        182172
#        199633
#        215166
#
# Disc length: 3093 seconds
#
# Revision: 0
# Processed by: cddbd v1.5.2PL0 Copyright (c) Steve Scherf et al.
# Submitted via: ExactAudioCopy v0.99pb4
#
DISCID=c10c130e
DTITLE=Jenniffer Kae - Faithfully
DYEAR=2008
DGENRE=Pop
TTITLE0=Little White Lies
TTITLE1=Coffee Cup   
TTITLE2=Trouble   
TTITLE3=Education
TTITLE4=Show A Little Faith   
TTITLE5=If This Ain't Love   
TTITLE6=You
TTITLE7=Girl Back On Earth   
TTITLE8=No Second Chances   
TTITLE9=Ebb And Flow   
TTITLE10=Ok   
TTITLE11=Love Is A Lonely Game   
TTITLE12=All I Need To Know   
TTITLE13=1000 Miles Per Hour  
EXTD=
EXTT0=
EXTT1=
EXTT2=
EXTT3=
EXTT4=
EXTT5=
EXTT6=
EXTT7=
EXTT8=
EXTT9=
EXTT10=
EXTT11=
EXTT12=
EXTT13=
PLAYORDER=
